<svg xmlns="http://www.w3.org/2000/svg" version="1.1" xmlns:xlink="http://www.w3.org/1999/xlink" xmlns:svgjs="http://svgjs.com/svgjs" width="800" height="800" preserveAspectRatio="none" viewBox="0 0 800 800">
    <g mask="url(&quot;#SvgjsMask1014&quot;)" fill="none">
        <rect width="800" height="800" x="0" y="0" fill="rgba(37, 38, 38, 1)"></rect>
        <path d="M0,290.481C53.436,283.763,93.911,244.756,142.862,222.298C201.875,195.223,289.404,203.535,317.3,144.906C345.086,86.509,278.112,25.317,266.894,-38.374C256.183,-99.188,284.923,-166.405,253.142,-219.349C219.938,-274.663,159.153,-315.588,95.235,-324.341C33.566,-332.786,-19.359,-286.326,-77.711,-264.658C-131.219,-244.789,-197.875,-246.922,-233.454,-202.289C-268.874,-157.856,-260.845,-94.031,-258.997,-37.238C-257.407,11.65,-237.814,55.304,-223.552,102.093C-206.817,156.995,-211.866,224.39,-167.976,261.376C-123.624,298.752,-57.548,297.716,0,290.481" fill="#1e1e1e"></path>
        <path d="M800 1119.268C860.711 1117.672 914.226 1088.7 969.808 1064.226 1035.845 1035.148 1123.844 1027.176 1155.924 962.545 1187.924 898.075 1145.0059999999999 822.271 1124.085 753.404 1106.007 693.893 1085.656 634.6759999999999 1042.669 589.726 1000.919 546.069 945.9639999999999 516.238 886.598 505.074 830.471 494.52 776.844 520.006 720.468 529.1379999999999 654.447 539.8330000000001 570.742 512.85 526.883 563.343 483.034 613.8240000000001 514.441 693.141 520.143 759.763 524.6610000000001 812.547 539.94 860.862 556.649 911.135 575.5070000000001 967.874 578.917 1034.445 624.356 1073.308 671.299 1113.4569999999999 738.251 1120.891 800 1119.268" fill="#2c2e2e"></path>
    </g>
    <defs>
        <mask id="SvgjsMask1014">
            <rect width="800" height="800" fill="#ffffff"></rect>
        </mask>
    </defs>
</svg>